<?xml version="1.0" encoding="UTF-8"?>
<!-- Generator: Adobe Illustrator 15.0.2, SVG Export Plug-In . SVG Version: 6.00 Build 0)  -->
<!DOCTYPE svg PUBLIC "-//W3C//DTD SVG 1.1//EN" "http://www.w3.org/Graphics/SVG/1.1/DTD/svg11.dtd">
<svg xmlns="http://www.w3.org/2000/svg" xmlns:xlink="http://www.w3.org/1999/xlink" version="1.1" id="Layer_1" x="0px" y="0px" width="512px" height="512px" viewBox="0 0 512 512" enable-background="new 0 0 512 512" xml:space="preserve">
<path d="M309.895,0h-87.579L192,114.526L98.993,53.789C75.592,71.98,55.428,94.151,39.526,119.276L256,256l216.474-136.724  C456.579,94.151,436.408,71.98,413,53.783l-93,60.743l-37.053-84.21c13.474,0,40.421,6.737,40.421,6.737  C309.895,3.369,309.895,0,309.895,0z M64.342,161.901l-36.138-22.822C10.178,174.125,0,213.875,0,256  c0,8.329,0.395,16.565,1.178,24.697L64.342,161.901z M87.185,176.329L8.974,323.421c5.204,19.132,12.572,37.355,21.816,54.408  l94.388-177.507L87.185,176.329z M148.026,214.75L47.27,404.237c10.343,14.552,22.171,27.974,35.264,40.025l107.822-202.775  L148.026,214.75z M213.204,255.921L103.73,461.815C146.283,493.342,198.967,512,256,512c57.026,0,109.711-18.658,152.263-50.185  L298.789,255.921L256,282.947L213.204,255.921z M321.645,241.487l107.829,202.775c13.079-12.052,24.921-25.474,35.264-40.025  L363.974,214.75L321.645,241.487z M386.815,200.322l94.396,177.507c9.236-17.053,16.604-35.276,21.815-54.408l-78.211-147.092  L386.815,200.322z M447.658,161.901l63.157,118.796C511.605,272.565,512,264.329,512,256c0-42.125-10.185-81.875-28.211-116.921  L447.658,161.901z" fill="#FFFFFF"/>
</svg>
